<?xml version="1.0" encoding="UTF-8"?>
<svg width="1000px" height="1001px" viewBox="0 0 1000 1001" version="1.1" xmlns="http://www.w3.org/2000/svg" xmlns:xlink="http://www.w3.org/1999/xlink">
    <!-- Generator: Sketch 51.1 (57501) - http://www.bohemiancoding.com/sketch -->
    <title>bot_logo</title>
    <desc>Created with Sketch.</desc>
    <defs>
        <linearGradient x1="47.7902943%" y1="51.8931289%" x2="-6.26300543%" y2="-13.0383941%" id="linearGradient-1">
            <stop stop-color="#FFB884" offset="0%"></stop>
            <stop stop-color="#FA1E64" offset="100%"></stop>
        </linearGradient>
        <path d="M384.58278,-2.70545947e-12 L615.41722,-2.54241624e-12 C749.145031,-2.56698164e-12 797.637967,13.9238417 846.526856,40.0699056 C895.415744,66.2159695 933.784031,104.584256 959.930094,153.473144 C986.076158,202.362033 1000,250.854969 1000,384.58278 L1000,933.995792 C1000,956.243962 997.689913,964.312497 993.348569,972.451113 C989.007225,980.589729 982.634623,986.982248 974.509595,991.34897 C966.384567,995.715691 958.32328,998.050947 936.075219,998.120377 L300.936216,1000.10248 C135.251598,1000.61954 0.518518661,866.724773 0.00146083758,701.040154 C0.000486946452,700.728083 6.25593001e-13,700.416011 6.25277607e-13,700.103938 L2.86395841e-14,384.58278 C-1.06511505e-13,250.854969 13.9238417,202.362033 40.0699056,153.473144 C66.2159695,104.584256 104.584256,66.2159695 153.473144,40.0699056 C202.362033,13.9238417 250.854969,-2.56211992e-12 384.58278,-2.70545947e-12 Z" id="path-2"></path>
        <linearGradient x1="56.2288411%" y1="88.8134955%" x2="31.8408203%" y2="-2.86783915%" id="linearGradient-4">
            <stop stop-color="#FFB884" offset="0%"></stop>
            <stop stop-color="#FA1E64" offset="100%"></stop>
        </linearGradient>
        <linearGradient x1="60.9521484%" y1="76.2483887%" x2="-6.40625%" y2="15.2701855%" id="linearGradient-5">
            <stop stop-color="#FFB884" offset="0%"></stop>
            <stop stop-color="#FA1E64" offset="100%"></stop>
        </linearGradient>
        <linearGradient x1="83.8134766%" y1="87.0133649%" x2="-6.26300543%" y2="-13.0383941%" id="linearGradient-6">
            <stop stop-color="#FFB884" offset="0%"></stop>
            <stop stop-color="#FA1E64" offset="100%"></stop>
        </linearGradient>
    </defs>
    <g id="logo-bot" stroke="none" stroke-width="1" fill="none" fill-rule="evenodd">
        <g id="bot_logo">
            <mask id="mask-3" fill="white">
                <use xlink:href="#path-2"></use>
            </mask>
            <use id="Rectangle" fill="url(#linearGradient-1)" xlink:href="#path-2"></use>
            <path d="M384.58278,200 L615.41722,200 C749.145031,200 797.637967,213.923842 846.526856,240.069906 C895.415744,266.215969 933.784031,304.584256 959.930094,353.473144 C986.076158,402.362033 1000,450.854969 1000,584.58278 L1000,814.37033 C1000,947.85935 986.139477,996.27056 960.091412,1045.10226 C934.043347,1093.93395 895.80774,1132.28907 847.057571,1158.4894 C798.307403,1184.68972 749.939683,1198.70126 616.451313,1199.11784 L300.936216,1200.10248 C135.251598,1200.61954 0.518518661,1066.72477 0.00146083758,901.040154 C0.000486946452,900.728083 6.25593001e-13,900.416011 6.25277607e-13,900.103938 L2.86395841e-14,584.58278 C-1.06511505e-13,450.854969 13.9238417,402.362033 40.0699056,353.473144 C66.2159695,304.584256 104.584256,266.215969 153.473144,240.069906 C202.362033,213.923842 250.854969,200 384.58278,200 Z" id="Rectangle" fill="url(#linearGradient-4)" mask="url(#mask-3)"></path>
            <path d="M634.58278,-2.70545947e-12 L865.41722,-2.54241624e-12 C999.145031,-2.56698164e-12 1047.63797,13.9238417 1096.52686,40.0699056 C1145.41574,66.2159695 1183.78403,104.584256 1209.93009,153.473144 C1236.07616,202.362033 1250,250.854969 1250,384.58278 L1250,614.37033 C1250,747.85935 1236.13948,796.27056 1210.09141,845.102256 C1184.04335,893.933951 1145.80774,932.289067 1097.05757,958.489395 C1048.3074,984.689723 999.939683,998.701257 866.451313,999.117839 L550.936216,1000.10248 C385.251598,1000.61954 250.518519,866.724773 250.001461,701.040154 C250.000487,700.728083 250,700.416011 250,700.103938 L250,384.58278 C250,250.854969 263.923842,202.362033 290.069906,153.473144 C316.215969,104.584256 354.584256,66.2159695 403.473144,40.0699056 C452.362033,13.9238417 500.854969,-2.56211992e-12 634.58278,-2.70545947e-12 Z" id="Rectangle" fill="url(#linearGradient-5)" opacity="0.6" mask="url(#mask-3)"></path>
            <path d="M-48.7505533,-400 L182.083887,-400 C315.811698,-400 364.304633,-386.076158 413.193522,-359.930094 C462.082411,-333.784031 500.450697,-295.415744 526.596761,-246.526856 C552.742825,-197.637967 566.666667,-149.145031 566.666667,-15.41722 L566.666667,214.37033 C566.666667,347.85935 552.806144,396.27056 526.758079,445.102256 C500.710014,493.933951 462.474407,532.289067 413.724238,558.489395 C364.97407,584.689723 316.606349,598.701257 183.11798,599.117839 L-132.397117,600.102478 C-298.081735,600.619535 -432.814815,466.724773 -433.331872,301.040154 C-433.332846,300.728083 -433.333333,300.416011 -433.333333,300.103938 L-433.333333,-15.41722 C-433.333333,-149.145031 -419.409492,-197.637967 -393.263428,-246.526856 C-367.117364,-295.415744 -328.749078,-333.784031 -279.860189,-359.930094 C-230.9713,-386.076158 -182.478364,-400 -48.7505533,-400 Z" id="Rectangle" fill="url(#linearGradient-6)" opacity="0.5" mask="url(#mask-3)"></path>
            <path d="M766.666667,366.666667 C766.666667,311.438192 721.895142,266.666667 666.666667,266.666667 L366.666667,266.666667 C311.438192,266.666667 266.666667,311.438192 266.666667,366.666667 L266.666667,560.681238 C266.829074,616.20276 311.731714,660.842784 366.959952,660.680808 L654.098378,659.83867 C665.461733,659.805343 676.645009,662.677161 686.58633,668.18144 L766.666667,712.520063 L766.666667,366.666667 Z M366.666667,200 L666.666667,200 C758.714125,200 833.333333,274.619208 833.333333,366.666667 L833.333333,797.356286 C833.333333,806.561032 825.871412,814.022953 816.666667,814.022953 C813.842374,814.022953 811.064404,813.305238 808.593559,811.937189 L654.293901,726.50505 L367.155475,727.347187 C275.108413,727.617149 200.270678,653.217108 200.000717,561.170046 C200.000398,561.061422 200.000159,496.226962 200,366.666667 C200,274.619208 274.619208,200 366.666667,200 Z" id="Rectangle" fill="#FFFFFF" fill-rule="nonzero" mask="url(#mask-3)" transform="translate(516.666667, 507.011476) scale(-1, 1) translate(-516.666667, -507.011476) "></path>
            <path d="M616.666667,438.798828 C616.666667,420.389336 631.590508,405.465495 650,405.465495 C668.409492,405.465495 683.333333,420.389336 683.333333,438.798828 L683.333333,488.798828 C683.333333,507.20832 668.409492,522.132161 650,522.132161 C631.590508,522.132161 616.666667,507.20832 616.666667,488.798828 L616.666667,438.798828 Z" id="Line" fill="#FFFFFF" fill-rule="nonzero" mask="url(#mask-3)"></path>
            <path d="M366.666667,438.798828 C366.666667,420.389336 381.590508,405.465495 400,405.465495 C418.409492,405.465495 433.333333,420.389336 433.333333,438.798828 L433.333333,488.798828 C433.333333,507.20832 418.409492,522.132161 400,522.132161 C381.590508,522.132161 366.666667,507.20832 366.666667,488.798828 L366.666667,438.798828 Z" id="Line" fill="#FFFFFF" fill-rule="nonzero" mask="url(#mask-3)"></path>
        </g>
    </g>
</svg>